<?xml version="1.0" encoding="UTF-8" standalone="no"?>
<!-- Created with Inkscape (http://www.inkscape.org/) -->

<svg
   version="1.1"
   id="svg1"
   width="298.86826"
   height="110.91568"
   viewBox="0 0 298.86826 110.91568"
   sodipodi:docname="StoragePulse.svg"
   inkscape:version="1.3.2 (091e20e, 2023-11-25, custom)"
   xmlns:inkscape="http://www.inkscape.org/namespaces/inkscape"
   xmlns:sodipodi="http://sodipodi.sourceforge.net/DTD/sodipodi-0.dtd"
   xmlns="http://www.w3.org/2000/svg"
   xmlns:svg="http://www.w3.org/2000/svg">
  <defs
     id="defs1" />
  <sodipodi:namedview
     id="namedview1"
     pagecolor="#ffffff"
     bordercolor="#000000"
     borderopacity="0.25"
     inkscape:showpageshadow="2"
     inkscape:pageopacity="0.0"
     inkscape:pagecheckerboard="0"
     inkscape:deskcolor="#d1d1d1"
     inkscape:zoom="4"
     inkscape:cx="154.125"
     inkscape:cy="119.375"
     inkscape:window-width="1920"
     inkscape:window-height="1129"
     inkscape:window-x="-8"
     inkscape:window-y="-8"
     inkscape:window-maximized="1"
     inkscape:current-layer="g1">
    <inkscape:page
       x="0"
       y="0"
       inkscape:label="1"
       id="page1"
       width="298.86826"
       height="110.91568"
       margin="0"
       bleed="0" />
  </sodipodi:namedview>
  <g
     id="g1"
     inkscape:groupmode="layer"
     inkscape:label="1">
    <path
       id="path1"
       d="M 51.418,12.781 H 89.991752 L 89.992,37.375 h 29.254 l 2.5e-4,-25.242"
       style="fill:none;stroke:#0000ff;stroke-width:1.70079;stroke-linecap:butt;stroke-linejoin:miter;stroke-miterlimit:4;stroke-dasharray:none;stroke-opacity:1"
       transform="scale(1.3333333)"
       sodipodi:nodetypes="ccccc" />
    <path
       id="path2"
       d="m 118.387,12.781 h 38.703 v 24.594 h 29.351 V 12.137"
       style="fill:none;stroke:#0000ff;stroke-width:1.70359;stroke-linecap:butt;stroke-linejoin:miter;stroke-miterlimit:4;stroke-dasharray:none;stroke-opacity:1"
       transform="scale(1.3333333)" />
    <path
       id="path3"
       d="m 185.578,12.781 h 38.574"
       style="fill:none;stroke:#0000ff;stroke-width:1.70079;stroke-linecap:butt;stroke-linejoin:miter;stroke-miterlimit:4;stroke-dasharray:none;stroke-opacity:1"
       transform="scale(1.3333333)" />
    <path
       id="path4"
       d="M 68.557332,108.16666 H 121.13053"
       style="fill:none;stroke:#ff0000;stroke-width:1.97404;stroke-linecap:butt;stroke-linejoin:miter;stroke-miterlimit:4;stroke-dasharray:none;stroke-opacity:1" />
    <path
       id="path5"
       d="M 119.98735,73.841281 V 107.41711"
       style="fill:none;stroke:#ff0000;stroke-width:2.2947;stroke-linecap:butt;stroke-linejoin:miter;stroke-miterlimit:4;stroke-dasharray:none;stroke-opacity:1" />
    <path
       id="path6"
       d="m 120.98982,75.030748 h 39.21522"
       style="fill:none;stroke:#ff0000;stroke-width:2.347;stroke-linecap:butt;stroke-linejoin:miter;stroke-miterlimit:4;stroke-dasharray:none;stroke-opacity:1"
       sodipodi:nodetypes="cc" />
    <path
       id="path7"
       d="M 159.0335,74.177331 V 109.28666"
       style="fill:none;stroke:#ff0000;stroke-width:2.347;stroke-linecap:butt;stroke-linejoin:miter;stroke-miterlimit:4;stroke-dasharray:none;stroke-opacity:1" />
    <path
       id="path8"
       d="m 158.99681,108.16666 h 51.69135"
       style="fill:none;stroke:#ff0000;stroke-width:2.36;stroke-linecap:butt;stroke-linejoin:miter;stroke-miterlimit:4;stroke-dasharray:none;stroke-opacity:1" />
    <path
       id="path9"
       d="M 209.50326,73.760415 V 109.276"
       style="fill:none;stroke:#ff0000;stroke-width:2.36;stroke-linecap:butt;stroke-linejoin:miter;stroke-miterlimit:4;stroke-dasharray:none;stroke-opacity:1" />
    <path
       id="path10"
       d="m 208.77957,74.94729 h 41.01617"
       style="fill:none;stroke:#ff0000;stroke-width:2.36;stroke-linecap:butt;stroke-linejoin:miter;stroke-miterlimit:4;stroke-dasharray:none;stroke-opacity:1" />
    <path
       id="path11"
       d="M 248.62326,74.177331 V 109.28666"
       style="fill:none;stroke:#ff0000;stroke-width:2.34652;stroke-linecap:butt;stroke-linejoin:miter;stroke-miterlimit:4;stroke-dasharray:none;stroke-opacity:1" />
    <path
       id="path13"
       d="m 247.87983,108.14533 h 48.82816"
       style="fill:none;stroke:#ff0000;stroke-width:2.36;stroke-linecap:butt;stroke-linejoin:miter;stroke-miterlimit:4;stroke-dasharray:none;stroke-opacity:1" />
    <g
       id="g13"
       aria-label="Detector oﬀ"
       transform="matrix(1.3333333,0,0,1.3333333,0.27681067,110.78234)">
      <path
         id="path14"
         d="m 1.9105561,-0.8445705 v -4.7929687 c 0,-0.3515625 0.3515625,-0.4921875 0.84375,-0.4921875 2.15625,0 2.859375,1.7460937 2.859375,3.2929687 0,2.015625 -1.2070313,2.51953125 -2.6132813,2.51953125 -0.984375,0 -1.0898437,-0.19921875 -1.0898437,-0.52734375 z M 1.4769623,-6.446133 c -0.3515625,0 -0.89062499,-0.011719 -1.28906249,-0.023437 -0.0585938,0.058594 -0.0585938,0.2695313 0,0.328125 0.703125,0.035156 0.86718749,0.082031 0.86718749,0.9140625 V -1.21957 c 0,0.83203125 -0.16406249,0.87890625 -0.86718749,0.9140625 -0.0585938,0.0585938 -0.0585938,0.26953125 0,0.328125 0.38671875,-0.01171925 0.92578129,-0.023438 1.30078129,-0.023438 0.375,0 0.7851562,0.0234375 1.8164062,0.0234375 1.4179688,0 3.2695313,-0.64453125 3.2695313,-3.1054687 0,-1.8515625 -1.5234375,-3.3867188 -3.4453125,-3.3867188 -0.7148438,0 -1.2539063,0.023437 -1.6523438,0.023437 z m 6.7763672,3.6210938 c 0.1875,-1.125 0.890625,-1.21875 1.125,-1.21875 0.3867188,0 0.8320315,0.2109375 0.8320315,1.0546875 0,0.09375 -0.03516,0.140625 -0.152344,0.140625 z m 2.6132815,1.89843745 c -0.363281,0.375 -0.65625,0.5390625 -1.2421877,0.5390625 -0.3515625,0 -0.7734375,-0.2109375 -1.078125,-0.72656245 -0.2109375,-0.328125 -0.328125,-0.7851563 -0.328125,-1.3710938 l 2.6601567,0.023437 c 0.117187,0 0.1875,-0.058594 0.1875,-0.1640625 0,-0.84375 -0.292969,-1.7460937 -1.6875005,-1.7460937 -0.8671875,0 -1.9921875,0.8320312 -1.9921875,2.3554687 0,0.5507813 0.140625,1.1015625 0.46875,1.4765625 0.3398438,0.3984375 0.8085938,0.64453125 1.5234375,0.64453125 0.7617185,0 1.3007815,-0.3515625 1.6992185,-0.87890625 -0.02344,-0.09375 -0.09375,-0.140625 -0.210937,-0.15234325 z M 11.912509,-4.289883 c -0.140625,0 -0.1875,0.1171875 -0.1875,0.1992188 v 0.1289062 c 0,0.046875 0.01172,0.058594 0.05859,0.058594 h 0.585937 v 3.0117187 c 0,0.71484375 0.304688,0.99609375 0.773438,0.99609375 0.457031,0 0.949219,-0.22265625 1.347656,-0.66796875 -0.02344,-0.09375 -0.08203,-0.15234375 -0.1875,-0.1640625 -0.257812,0.19921875 -0.550781,0.28125 -0.820312,0.28125 -0.269532,0 -0.328125,-0.3046875 -0.328125,-0.9257812 v -2.53125 h 1.042968 c 0.105469,0 0.234375,-0.035156 0.234375,-0.1289063 V -4.231289 c 0,-0.035156 -0.02344,-0.058594 -0.07031,-0.058594 h -1.207031 v -0.3867187 c 0,-0.65625 0.04687,-1.0546875 0.04687,-1.0546875 0,-0.058594 -0.03516,-0.082031 -0.08203,-0.082031 -0.04687,0 -0.128906,0.046875 -0.222656,0.09375 -0.117187,0.058594 -0.222656,0.1054688 -0.339844,0.140625 -0.117187,0.035156 -0.222656,0.070312 -0.222656,0.1289063 0,0.1171875 0.03516,0.046875 0.03516,1.1601562 z m 3.969727,1.4648438 c 0.1875,-1.125 0.890625,-1.21875 1.125,-1.21875 0.386718,0 0.832031,0.2109375 0.832031,1.0546875 0,0.09375 -0.03516,0.140625 -0.152344,0.140625 z m 2.613281,1.89843745 c -0.363281,0.375 -0.65625,0.5390625 -1.242188,0.5390625 -0.351562,0 -0.773437,-0.2109375 -1.078125,-0.72656245 -0.210937,-0.328125 -0.328124,-0.7851563 -0.328124,-1.3710938 l 2.660156,0.023437 c 0.117187,0 0.1875,-0.058594 0.1875,-0.1640625 0,-0.84375 -0.292969,-1.7460937 -1.6875,-1.7460937 -0.867188,0 -1.992188,0.8320312 -1.992188,2.3554687 0,0.5507813 0.140625,1.1015625 0.46875,1.4765625 0.339844,0.3984375 0.808594,0.64453125 1.523438,0.64453125 0.761718,0 1.300781,-0.3515625 1.699218,-0.87890625 -0.02344,-0.09375 -0.09375,-0.140625 -0.210937,-0.15234325 z m 4.658203,0.0117188 c -0.03516,-0.0820313 -0.117187,-0.12890615 -0.199219,-0.14062495 -0.339843,0.44531245 -0.773437,0.6679687 -1.207031,0.6679687 -0.726562,0 -1.335937,-0.7382812 -1.335937,-1.9101563 0,-1.1015625 0.480468,-1.7578124 1.136718,-1.7578124 0.585938,0 0.667969,0.3515624 0.714844,0.6914063 0.02344,0.2695311 0.164063,0.3632811 0.375,0.3632811 0.210938,0 0.492188,-0.1289061 0.492188,-0.4335936 0,-0.5507814 -0.574219,-0.9492188 -1.535157,-0.9492188 -0.984375,0 -2.039062,0.8789063 -2.039062,2.3085938 0,1.2890624 0.714844,2.1796874 1.96875,2.1796874 0.609375,0 1.136719,-0.19921875 1.628906,-1.01953125 z m 0.741211,-3.37499995 c -0.140625,0 -0.1875,0.1171875 -0.1875,0.1992188 v 0.1289061 c 0,0.046875 0.01172,0.058594 0.05859,0.058594 h 0.585937 v 3.01171875 c 0,0.71484375 0.304688,0.99609375 0.773438,0.99609375 0.457031,0 0.949219,-0.22265625 1.347656,-0.66796875 -0.02344,-0.09375 -0.08203,-0.15234375 -0.1875,-0.1640625 -0.257812,0.19921875 -0.550781,0.28125 -0.820312,0.28125 -0.269532,0 -0.328125,-0.3046875 -0.328125,-0.92578125 v -2.53125 h 1.042968 c 0.105469,0 0.234375,-0.035156 0.234375,-0.1289062 V -4.231289 c 0,-0.035156 -0.02344,-0.058594 -0.07031,-0.058594 h -1.207031 v -0.3867187 c 0,-0.65625 0.04687,-1.0546875 0.04687,-1.0546875 0,-0.058594 -0.03516,-0.082031 -0.08203,-0.082031 -0.04687,0 -0.128906,0.046875 -0.222656,0.09375 -0.117187,0.058594 -0.222656,0.1054688 -0.339844,0.140625 -0.117187,0.035156 -0.222656,0.070312 -0.222656,0.1289063 0,0.1171875 0.03516,0.046875 0.03516,1.1601562 z m 3.134766,2.2382813 c 0,1.0195312 0.679687,2.1562499 2.097656,2.1562499 0.644531,0 1.125,-0.22265625 1.464844,-0.5625 0.445312,-0.43359375 0.65625,-1.0664062 0.65625,-1.6875 0,-1.03125 -0.574219,-2.2382813 -2.097657,-2.2382813 -0.65625,0 -1.207031,0.2695313 -1.570312,0.6914063 -0.363281,0.4335937 -0.550781,1.0078125 -0.550781,1.6406251 z m 1.96875,-1.9921875 c 0.855468,0 1.394531,0.7851561 1.394531,2.2265624 0,1.25390625 -0.65625,1.5703125 -1.125,1.5703125 -1.042969,0 -1.382813,-1.265625 -1.382813,-2.0273438 0,-0.8789061 0.210938,-1.7695311 1.113282,-1.7695311 z m 4.417968,0.4687499 c -0.02344,-0.3984375 -0.03516,-0.6562499 -0.08203,-0.7617187 -0.02344,-0.046875 -0.03516,-0.082031 -0.117187,-0.082031 -0.28125,0.1054687 -0.539063,0.1992187 -1.230469,0.2929687 -0.02344,0.058594 0,0.2109375 0.02344,0.28125 0.539063,0.046875 0.644532,0.09375 0.644532,0.6796875 v 1.9453125 c 0,0.8320312 -0.117188,0.86718745 -0.738282,0.91406245 -0.05859,0.0585938 -0.05859,0.26953125 0,0.328125 0.351563,-0.01171875 0.738282,-0.0234375 1.136719,-0.0234375 0.410156,0 0.867188,0.01171875 1.21875,0.0234375 0.05859,-0.05859375 0.05859,-0.26953125 0,-0.328125 -0.703125,-0.0585938 -0.820312,-0.0820313 -0.820312,-0.91406245 v -1.3945312 c 0,-0.2578125 0.117187,-0.4804688 0.234375,-0.6679688 0.117187,-0.1523437 0.339843,-0.4921875 0.457031,-0.4921875 0.09375,0 0.1875,0.035156 0.257812,0.140625 0.08203,0.09375 0.1875,0.2226563 0.363282,0.2226563 0.246093,0 0.46875,-0.2460938 0.46875,-0.5039063 0,-0.1875 -0.175782,-0.46875 -0.597657,-0.46875 -0.46875,0 -0.878906,0.4335937 -1.101562,0.8203124 -0.07031,0.1171875 -0.117188,0.035156 -0.117188,-0.011719 z m 4.875,1.5234375 c 0,1.0195312 0.679688,2.15625 2.097657,2.15625 0.644531,0 1.125,-0.22265625 1.464843,-0.5625 0.445313,-0.43359375 0.65625,-1.0664063 0.65625,-1.6875 0,-1.03125 -0.574218,-2.2382813 -2.097656,-2.2382813 -0.65625,0 -1.207031,0.2695313 -1.570312,0.6914063 -0.363282,0.4335937 -0.550782,1.0078125 -0.550782,1.640625 z m 1.96875,-1.9921874 c 0.855469,0 1.394532,0.7851561 1.394532,2.2265624 0,1.25390625 -0.65625,1.5703125 -1.125,1.5703125 -1.042969,0 -1.382813,-1.265625 -1.382813,-2.0273438 0,-0.8789061 0.210938,-1.7695311 1.113281,-1.7695311 z m 0,0"
         style="fill:#000000;fill-opacity:1;fill-rule:nonzero;stroke:none" />
      <path
         id="path15"
         d="m 47.385165,-1.2195705 v -2.6835937 h 0.925782 c 0.09375,0 0.234375,-0.035156 0.234375,-0.1289063 v -0.1992187 c 0,-0.035156 -0.02344,-0.058594 -0.08203,-0.058594 h -1.078125 v -0.5273437 c 0,-0.1992188 0.01172,-0.65625 0.07031,-0.9960938 0.140625,-0.7265625 0.398437,-0.8203125 0.621094,-0.8203125 0.246093,0 0.457031,0.140625 0.539062,0.3398438 0.105469,0.2109375 0.199219,0.4101562 0.46875,0.4101562 0.199219,0 0.351563,-0.1523437 0.351563,-0.3515625 0,-0.4101562 -0.457032,-0.7382812 -1.195313,-0.7382812 -0.375,0 -0.9375,0.2109375 -1.277344,0.75 -0.128906,-0.2460938 -0.585937,-0.5859375 -1.382812,-0.5859375 -0.269531,0 -0.527344,0.070312 -0.738281,0.1875 -0.691407,0.3984375 -1.019532,1.1132812 -1.019532,2.3320312 h -0.492187 c -0.175781,0 -0.234375,0.1171875 -0.234375,0.1992188 v 0.1289062 c 0,0.046875 0.01172,0.058594 0.05859,0.058594 h 0.667968 v 2.6835937 c 0,0.83203125 -0.117187,0.8671875 -0.65625,0.9140625 -0.05859,0.0585938 -0.05859,0.26953125 0,0.328125 0.328125,-0.01171875 0.679688,-0.0234375 1.054688,-0.0234375 0.316406,0 0.65625,0.01171875 0.972656,0.0234375 0.07031,-0.05859375 0.07031,-0.26953125 0,-0.328125 -0.457031,-0.046875 -0.585937,-0.0820313 -0.585937,-0.9140625 v -2.6835937 h 1.992187 v 2.6835937 c 0,0.83203125 -0.105469,0.8671875 -0.550781,0.9140625 -0.05859,0.0585938 -0.05859,0.26953125 0,0.328125 0.292969,-0.01171875 0.597656,-0.0234375 0.949219,-0.0234375 0.316406,0 0.75,0.01171875 1.183593,0.0234375 0.05859,-0.05859375 0.05859,-0.26953125 0,-0.328125 -0.679687,-0.046875 -0.796875,-0.0820313 -0.796875,-0.9140625 z m -0.691406,-4.4179687 c -0.08203,0.3632812 -0.09375,0.7617187 -0.09375,0.9492187 v 0.3984375 h -1.992187 v -0.09375 c 0,-0.6796875 0.08203,-1.0195312 0.140625,-1.21875 0.210937,-0.796875 0.65625,-0.9023437 0.808593,-0.9023437 0.339844,0 0.527344,0.2460937 0.644532,0.4804687 0.08203,0.2109375 0.175781,0.4101563 0.433593,0.4101563 0.02344,0 0.04687,0 0.05859,-0.023437 z m 0,0"
         style="fill:#000000;fill-opacity:1;fill-rule:nonzero;stroke:none" />
    </g>
    <path
       id="path16"
       d="M 224.148,55.645 H 51.418"
       style="fill:none;stroke:#000000;stroke-width:0.518525;stroke-linecap:butt;stroke-linejoin:miter;stroke-miterlimit:4;stroke-dasharray:3.11114, 3.11114;stroke-dashoffset:0;stroke-opacity:1"
       transform="scale(1.3333333)" />
    <path
       id="path17"
       d="M 1.9114941,-0.84479056 V -5.6377593 c 0,-0.3515625 0.3515625,-0.4921875 0.84375,-0.4921875 2.15625,0 2.859375,1.7460937 2.859375,3.2929687 0,2.01562504 -1.2070313,2.51953129 -2.6132813,2.51953129 -0.984375,0 -1.0898437,-0.19921875 -1.0898437,-0.52734375 z M 1.4779003,-6.4463531 c -0.3515625,0 -0.89062499,-0.011719 -1.28906249,-0.023437 -0.0585938,0.058594 -0.0585938,0.2695313 0,0.328125 0.703125,0.035156 0.86718749,0.082031 0.86718749,0.9140625 v 4.0078125 c 0,0.83203129 -0.16406249,0.87890629 -0.86718749,0.91406254 -0.0585938,0.0585938 -0.0585938,0.26953125 0,0.328125 0.38671875,-0.01171875 0.92578129,-0.0234375 1.30078129,-0.0234375 0.375,0 0.7851562,0.0234375 1.8164062,0.0234375 1.4179688,0 3.2695313,-0.64453125 3.2695313,-3.10546874 0,-1.8515625 -1.5234375,-3.3867188 -3.4453125,-3.3867188 -0.7148438,0 -1.2539063,0.023437 -1.6523438,0.023437 z m 6.7734375,3.6210938 c 0.1875,-1.125 0.890625,-1.21875 1.125,-1.21875 0.3867188,0 0.8320312,0.2109375 0.8320312,1.0546875 0,0.09375 -0.03516,0.140625 -0.152344,0.140625 z m 2.6132812,1.89843749 c -0.363281,0.375 -0.65625,0.5390625 -1.2421874,0.5390625 -0.3515625,0 -0.7734375,-0.2109375 -1.078125,-0.72656249 -0.2109375,-0.328125 -0.328125,-0.7851563 -0.328125,-1.3710938 l 2.6601564,0.023437 c 0.117187,0 0.1875,-0.058594 0.1875,-0.1640625 0,-0.84375 -0.292969,-1.7460937 -1.6875002,-1.7460937 -0.8671875,0 -1.9921875,0.8320312 -1.9921875,2.3554687 0,0.5507813 0.140625,1.10156254 0.46875,1.47656254 0.3398438,0.3984375 0.8085938,0.64453125 1.5234375,0.64453125 0.7617192,0 1.3007812,-0.3515625 1.6992192,-0.87890625 -0.02344,-0.09375 -0.09375,-0.140625 -0.210938,-0.15234325 z m 1.048828,-3.36328129 c -0.140625,0 -0.1875,0.1171875 -0.1875,0.1992188 v 0.1289062 c 0,0.046875 0.01172,0.058594 0.05859,0.058594 h 0.585937 v 3.01171874 c 0,0.71484375 0.304688,0.99609375 0.773438,0.99609375 0.457031,0 0.949219,-0.22265625 1.347656,-0.66796875 -0.02344,-0.09375 -0.08203,-0.15234375 -0.1875,-0.1640625 -0.257812,0.19921875 -0.550781,0.28125 -0.820312,0.28125 -0.269532,0 -0.328125,-0.3046875 -0.328125,-0.92578124 v -2.53125 h 1.042968 c 0.105469,0 0.234375,-0.035156 0.234375,-0.1289063 v -0.1992187 c 0,-0.035156 -0.02344,-0.058594 -0.07031,-0.058594 h -1.207031 v -0.3867187 c 0,-0.65625 0.04687,-1.0546875 0.04687,-1.0546875 0,-0.058594 -0.03516,-0.082031 -0.08203,-0.082031 -0.04687,0 -0.128906,0.046875 -0.222656,0.09375 -0.117187,0.058594 -0.222656,0.1054688 -0.339844,0.140625 -0.117187,0.035156 -0.222656,0.070312 -0.222656,0.1289063 0,0.1171875 0.03516,0.046875 0.03516,1.1601562 z m 3.969727,1.4648438 c 0.1875,-1.125 0.890625,-1.21875 1.125,-1.21875 0.386718,0 0.832031,0.2109375 0.832031,1.0546875 0,0.09375 -0.03516,0.140625 -0.152344,0.140625 z m 2.613281,1.89843749 c -0.363281,0.375 -0.65625,0.5390625 -1.242188,0.5390625 -0.351562,0 -0.773437,-0.2109375 -1.078125,-0.72656249 -0.210937,-0.328125 -0.328125,-0.7851563 -0.328125,-1.3710938 l 2.660157,0.023437 c 0.117187,0 0.1875,-0.058594 0.1875,-0.1640625 0,-0.84375 -0.292969,-1.7460937 -1.6875,-1.7460937 -0.867188,0 -1.992188,0.8320312 -1.992188,2.3554687 0,0.5507813 0.140625,1.10156254 0.46875,1.47656254 0.339844,0.3984375 0.808594,0.64453125 1.523438,0.64453125 0.761718,0 1.300781,-0.3515625 1.699218,-0.87890625 -0.02344,-0.09375 -0.09375,-0.140625 -0.210937,-0.15234325 z m 4.655273,0.0117188 c -0.03516,-0.0820313 -0.117187,-0.12890619 -0.199218,-0.14062499 -0.339844,0.44531249 -0.773438,0.66796874 -1.207032,0.66796874 -0.726562,0 -1.335937,-0.73828124 -1.335937,-1.91015634 0,-1.1015625 0.480469,-1.7578124 1.136719,-1.7578124 0.585937,0 0.667968,0.3515624 0.714843,0.6914063 0.02344,0.2695311 0.164063,0.3632811 0.375,0.3632811 0.210938,0 0.492188,-0.1289061 0.492188,-0.4335936 0,-0.5507813 -0.574219,-0.9492188 -1.535156,-0.9492188 -0.984375,0 -2.039063,0.8789063 -2.039063,2.3085938 0,1.28906244 0.714844,2.17968744 1.96875,2.17968744 0.609375,0 1.136719,-0.19921875 1.628906,-1.01953125 z M 23.892939,-4.290103 c -0.140625,0 -0.1875,0.1171875 -0.1875,0.1992188 v 0.1289061 c 0,0.046875 0.01172,0.058594 0.05859,0.058594 h 0.585938 v 3.01171879 c 0,0.71484375 0.304687,0.99609375 0.773437,0.99609375 0.457031,0 0.949219,-0.22265625 1.347656,-0.66796875 -0.02344,-0.09375 -0.08203,-0.15234375 -0.1875,-0.1640625 -0.257812,0.19921875 -0.550781,0.28125 -0.820312,0.28125 -0.269531,0 -0.328125,-0.3046875 -0.328125,-0.92578129 v -2.53125 h 1.042969 c 0.105468,0 0.234375,-0.035156 0.234375,-0.1289062 v -0.1992188 c 0,-0.035156 -0.02344,-0.058594 -0.07031,-0.058594 h -1.207031 v -0.3867187 c 0,-0.65625 0.04687,-1.0546875 0.04687,-1.0546875 0,-0.058594 -0.03516,-0.082031 -0.08203,-0.082031 -0.04687,0 -0.128907,0.046875 -0.222657,0.09375 -0.117187,0.058594 -0.222656,0.1054688 -0.339843,0.140625 -0.117188,0.035156 -0.222657,0.070312 -0.222657,0.1289063 0,0.1171875 0.03516,0.046875 0.03516,1.1601562 z m 3.137696,2.2382813 c 0,1.0195312 0.679687,2.15624994 2.097656,2.15624994 0.644531,0 1.125,-0.22265625 1.464844,-0.5625 0.445312,-0.43359375 0.65625,-1.06640624 0.65625,-1.68749994 0,-1.03125 -0.574219,-2.2382813 -2.097657,-2.2382813 -0.65625,0 -1.207031,0.2695313 -1.570312,0.6914063 -0.363281,0.4335936 -0.550781,1.0078125 -0.550781,1.640625 z m 1.96875,-1.9921875 c 0.855468,0 1.394531,0.7851561 1.394531,2.2265624 0,1.25390629 -0.65625,1.57031254 -1.125,1.57031254 -1.042969,0 -1.382813,-1.26562504 -1.382813,-2.02734384 0,-0.8789062 0.210938,-1.7695311 1.113282,-1.7695311 z m 4.417968,0.4687499 c -0.02344,-0.3984375 -0.03516,-0.6562499 -0.08203,-0.7617187 -0.02344,-0.046875 -0.03516,-0.082031 -0.117187,-0.082031 -0.28125,0.1054687 -0.539063,0.1992187 -1.230469,0.2929687 -0.02344,0.058594 0,0.2109375 0.02344,0.28125 0.539063,0.046875 0.644532,0.09375 0.644532,0.6796875 v 1.9453125 c 0,0.83203124 -0.117188,0.86718749 -0.738282,0.91406249 -0.05859,0.0585938 -0.05859,0.26953125 0,0.328125 0.351563,-0.01171875 0.738282,-0.0234375 1.136719,-0.0234375 0.410156,0 0.867188,0.01171875 1.21875,0.0234375 0.05859,-0.05859375 0.05859,-0.26953125 0,-0.328125 -0.703125,-0.0585938 -0.820312,-0.0820313 -0.820312,-0.91406249 v -1.3945312 c 0,-0.2578125 0.117187,-0.4804688 0.234375,-0.6679688 0.117187,-0.1523437 0.339843,-0.4921875 0.457031,-0.4921875 0.09375,0 0.1875,0.035156 0.257812,0.140625 0.08203,0.09375 0.1875,0.2226563 0.363282,0.2226563 0.246093,0 0.46875,-0.2460938 0.46875,-0.5039063 0,-0.1875 -0.175782,-0.46875 -0.597657,-0.46875 -0.46875,0 -0.878906,0.4335937 -1.101562,0.8203124 -0.07031,0.1171875 -0.117188,0.035156 -0.117188,-0.011719 z m 4.872071,1.5234375 c 0,1.0195312 0.679687,2.15625004 2.097656,2.15625004 0.644531,0 1.125,-0.22265625 1.464844,-0.5625 0.445312,-0.43359375 0.65625,-1.06640634 0.65625,-1.68750004 0,-1.03125 -0.574219,-2.2382813 -2.097657,-2.2382813 -0.65625,0 -1.207031,0.2695313 -1.570312,0.6914063 -0.363281,0.4335937 -0.550781,1.0078125 -0.550781,1.640625 z m 1.96875,-1.9921874 c 0.855468,0 1.394531,0.7851561 1.394531,2.2265624 0,1.25390629 -0.65625,1.57031254 -1.125,1.57031254 -1.042969,0 -1.382813,-1.26562504 -1.382813,-2.02734384 0,-0.8789062 0.210938,-1.7695311 1.113282,-1.7695311 z m 4.502929,0.4687499 c -0.07031,0.070312 -0.117187,0.09375 -0.117187,0 -0.01172,-0.2695313 -0.04687,-0.6562499 -0.08203,-0.7617187 -0.03516,-0.046875 -0.04687,-0.082031 -0.117188,-0.082031 -0.28125,0.1054687 -0.539062,0.1992187 -1.230469,0.2929687 -0.02344,0.058594 0,0.2109375 0.01172,0.28125 0.550781,0.046875 0.65625,0.09375 0.65625,0.6796875 v 1.9453125 c 0,0.82031249 -0.105469,0.85546874 -0.703125,0.91406249 -0.05859,0.0585938 -0.05859,0.26953125 0,0.328125 0.304688,-0.01171875 0.703125,-0.0234375 1.101563,-0.0234375 0.398437,0 0.703125,0.01171875 0.996093,0.0234375 0.05859,-0.05859375 0.05859,-0.26953125 0,-0.328125 -0.503906,-0.0585938 -0.609375,-0.09375 -0.609375,-0.91406249 v -1.640625 c 0,-0.2109375 0.09375,-0.328125 0.175782,-0.421875 0.375,-0.3632812 0.832031,-0.5859375 1.21875,-0.5859375 0.199218,0 0.410156,0.1289063 0.527343,0.3632813 0.105469,0.1992187 0.117188,0.46875 0.117188,0.7617187 v 1.5234375 c 0,0.82031249 -0.09375,0.85546874 -0.621094,0.91406249 -0.04687,0.0585938 -0.04687,0.26953125 0,0.328125 0.304688,-0.01171875 0.621094,-0.0234375 1.019531,-0.0234375 0.410157,0 0.761719,0.01171875 1.066407,0.0234375 0.04687,-0.05859375 0.04687,-0.26953125 0,-0.328125 -0.5625,-0.0585938 -0.667969,-0.09375 -0.667969,-0.91406249 v -1.4882812 c 0,-0.5507813 -0.04687,-1.03125 -0.269531,-1.3359375 -0.175782,-0.2226563 -0.480469,-0.3398438 -0.832032,-0.3398438 -0.492187,0 -1.054687,0.1289063 -1.640625,0.8085938 z M 2.3948925,-44.839908 c -0.2109375,0 -0.28125,-0.03516 -0.2578125,-0.128906 l 1.03125,-2.589844 h 0.058594 l 0.9374999,2.71875 z m -1.078125,2.039063 0.5507812,-1.453125 c 0.046875,-0.128906 0.1171875,-0.175781 0.3515626,-0.175781 h 2.1093749 l 0.5742188,1.699218 c 0.1171875,0.339844 -0.2695313,0.375 -0.7382813,0.410157 -0.058594,0.05859 -0.058594,0.269531 0,0.328125 0.375,-0.01172 0.9257813,-0.02344 1.3125,-0.02344 0.4101563,0 0.7851563,0.01172 1.1367188,0.02344 0.058594,-0.05859 0.058594,-0.269532 0,-0.328125 -0.3867188,-0.03516 -0.7265625,-0.07031 -0.890625,-0.550782 l -2.0625,-5.71875 c -0.1523437,0.08203 -0.421875,0.199219 -0.5507812,0.199219 l -2.27343755,5.355469 c -0.2578125,0.621094 -0.5625,0.679687 -0.99609375,0.714844 -0.0585938,0.05859 -0.0585938,0.269531 0,0.328125 0.2578125,-0.01172 0.57421875,-0.02344 0.890625,-0.02344 0.4101563,0 0.9140625,0.01172 1.2773438,0.02344 0.058594,-0.05859 0.058594,-0.269532 0,-0.328125 -0.3750001,-0.02344 -0.84375,-0.07031 -0.6914063,-0.480469 z m 9.2548825,-0.128906 c -0.03516,-0.08203 -0.117187,-0.128907 -0.199218,-0.140625 -0.339844,0.445312 -0.7734379,0.667968 -1.2070317,0.667968 -0.7265625,0 -1.3359375,-0.738281 -1.3359375,-1.910156 0,-1.101562 0.4804688,-1.757812 1.1367188,-1.757812 0.5859375,0 0.6679687,0.351562 0.7148437,0.691406 0.023437,0.269531 0.1640625,0.363281 0.3749997,0.363281 0.210938,0 0.492188,-0.128906 0.492188,-0.433594 0,-0.550781 -0.5742189,-0.949218 -1.5351564,-0.949218 -0.984375,0 -2.0390625,0.878906 -2.0390625,2.308593 0,1.289063 0.7148437,2.179688 1.96875,2.179688 0.609375,0 1.1367189,-0.199219 1.6289059,-1.019531 z m 4.280274,0 c -0.03516,-0.08203 -0.117188,-0.128907 -0.199219,-0.140625 -0.339844,0.445312 -0.773438,0.667968 -1.207031,0.667968 -0.726563,0 -1.335938,-0.738281 -1.335938,-1.910156 0,-1.101562 0.480469,-1.757812 1.136719,-1.757812 0.585937,0 0.667969,0.351562 0.714844,0.691406 0.02344,0.269531 0.164062,0.363281 0.375,0.363281 0.210937,0 0.492187,-0.128906 0.492187,-0.433594 0,-0.550781 -0.574219,-0.949218 -1.535156,-0.949218 -0.984375,0 -2.039063,0.878906 -2.039063,2.308593 0,1.289063 0.714844,2.179688 1.96875,2.179688 0.609375,0 1.136719,-0.199219 1.628907,-1.019531 z m 2.475586,1.019531 c 0.386718,0 0.855468,-0.210938 1.347656,-0.609375 0.05859,-0.03516 0.140625,-0.05859 0.152344,0.01172 0.02344,0.257812 0.105468,0.597656 0.105468,0.597656 0.08203,0.02344 0.128907,0.02344 0.199219,0 0.210938,-0.1875 0.5625,-0.339844 1.171875,-0.410156 0.05859,-0.05859 0.05859,-0.210938 0,-0.269532 -0.632812,-0.04687 -0.726562,-0.234375 -0.726562,-0.726562 v -1.921875 c 0,-0.292969 0.03516,-1.03125 0.03516,-1.03125 0,-0.02344 -0.02344,-0.05859 -0.07031,-0.05859 -0.05859,0.01172 -0.199218,0.02344 -0.351562,0.02344 -0.328125,0 -0.679688,-0.01172 -1.019531,-0.02344 -0.05859,0.05859 -0.05859,0.269531 0,0.339844 0.492187,0.02344 0.621093,0.140625 0.621093,0.808594 v 1.921875 c 0,0.1875 -0.02344,0.269531 -0.164062,0.386718 -0.375,0.328125 -0.75,0.480469 -0.996094,0.480469 -0.304687,0 -0.808594,-0.140625 -0.808594,-1.019531 v -1.828125 c 0,-0.292969 0.04687,-1.03125 0.04687,-1.03125 0,-0.02344 -0.03516,-0.05859 -0.08203,-0.05859 -0.04687,0.01172 -0.199219,0.02344 -0.351562,0.02344 -0.316407,0 -0.679688,-0.01172 -1.019532,-0.02344 -0.05859,0.05859 -0.05859,0.269531 0,0.339844 0.480469,0.03516 0.621094,0.140625 0.621094,0.796875 v 1.921875 c 0,0.679687 0.304688,1.359375 1.289063,1.359375 z m 4.839843,-3.679688 c -0.02344,-0.292968 -0.03516,-0.65625 -0.08203,-0.761718 -0.02344,-0.04687 -0.03516,-0.08203 -0.117187,-0.08203 -0.28125,0.105469 -0.539063,0.199219 -1.230469,0.292969 -0.02344,0.05859 0,0.210938 0.02344,0.28125 0.539063,0.04687 0.644532,0.09375 0.644532,0.679688 v 1.945312 c 0,0.820313 -0.128907,0.867188 -0.679688,0.914063 -0.05859,0.05859 -0.05859,0.269531 0,0.328125 0.304688,-0.01172 0.679688,-0.02344 1.078125,-0.02344 0.398438,0 0.703125,0.01172 1.007813,0.02344 0.05859,-0.05859 0.05859,-0.269532 0,-0.328125 -0.503907,-0.05859 -0.609375,-0.09375 -0.609375,-0.914063 v -1.640625 c 0,-0.210937 0.08203,-0.328125 0.164062,-0.421875 0.386719,-0.375 0.773438,-0.585937 1.078125,-0.585937 0.386719,0 0.65625,0.234375 0.65625,0.914062 v 1.734375 c 0,0.820313 -0.07031,0.867188 -0.609375,0.914063 -0.05859,0.05859 -0.05859,0.269531 0,0.328125 0.246094,-0.01172 0.609375,-0.02344 1.019531,-0.02344 0.398438,0 0.726563,0.01172 0.972657,0.02344 0.04687,-0.05859 0.04687,-0.269532 0,-0.328125 -0.492188,-0.04687 -0.585938,-0.09375 -0.585938,-0.914063 v -1.59375 c 0,-0.140625 0,-0.28125 -0.01172,-0.398437 0.480469,-0.527344 0.925782,-0.65625 1.324219,-0.65625 0.375,0 0.597656,0.222656 0.597656,0.890625 v 1.757812 c 0,0.820313 -0.105468,0.867188 -0.621093,0.914063 -0.04687,0.05859 -0.04687,0.269531 0,0.328125 0.246093,-0.01172 0.621093,-0.02344 1.019531,-0.02344 0.398437,0 0.75,0.01172 1.03125,0.02344 0.04687,-0.05859 0.04687,-0.269532 0,-0.328125 -0.550781,-0.04687 -0.644531,-0.09375 -0.644531,-0.914063 v -1.582031 c 0,-0.890625 -0.152344,-1.582031 -1.03125,-1.582031 -0.515625,0 -1.125,0.1875 -1.640625,0.738281 -0.03516,0.02344 -0.09375,0.07031 -0.117188,0 -0.09375,-0.410156 -0.480469,-0.738281 -0.996094,-0.738281 -0.585937,0 -1.113281,0.339843 -1.523437,0.808593 -0.04687,0.05859 -0.117188,0.117188 -0.117188,0 z m 8.370118,3.679688 c 0.386718,0 0.855468,-0.210938 1.347656,-0.609375 0.05859,-0.03516 0.140625,-0.05859 0.152344,0.01172 0.02344,0.257812 0.105468,0.597656 0.105468,0.597656 0.08203,0.02344 0.128907,0.02344 0.199219,0 0.210938,-0.1875 0.5625,-0.339844 1.171875,-0.410156 0.05859,-0.05859 0.05859,-0.210938 0,-0.269532 -0.632812,-0.04687 -0.726562,-0.234375 -0.726562,-0.726562 v -1.921875 c 0,-0.292969 0.03516,-1.03125 0.03516,-1.03125 0,-0.02344 -0.02344,-0.05859 -0.07031,-0.05859 -0.05859,0.01172 -0.199218,0.02344 -0.351562,0.02344 -0.328125,0 -0.679688,-0.01172 -1.019531,-0.02344 -0.05859,0.05859 -0.05859,0.269531 0,0.339844 0.492187,0.02344 0.621093,0.140625 0.621093,0.808594 v 1.921875 c 0,0.1875 -0.02344,0.269531 -0.164062,0.386718 -0.375,0.328125 -0.75,0.480469 -0.996094,0.480469 -0.304687,0 -0.808594,-0.140625 -0.808594,-1.019531 v -1.828125 c 0,-0.292969 0.04687,-1.03125 0.04687,-1.03125 0,-0.02344 -0.03516,-0.05859 -0.08203,-0.05859 -0.04687,0.01172 -0.199219,0.02344 -0.351562,0.02344 -0.316407,0 -0.679688,-0.01172 -1.019532,-0.02344 -0.05859,0.05859 -0.05859,0.269531 0,0.339844 0.480469,0.03516 0.621094,0.140625 0.621094,0.796875 v 1.921875 c 0,0.679687 0.304688,1.359375 1.289063,1.359375 z m 4.089843,-1.324219 c 0,0.832031 -0.105468,0.878906 -0.714843,0.914063 -0.05859,0.05859 -0.05859,0.269531 0,0.328125 0.339843,-0.01172 0.714843,-0.02344 1.113281,-0.02344 0.398437,0 0.785156,0.01172 1.113281,0.02344 0.05859,-0.05859 0.05859,-0.269532 0,-0.328125 -0.609375,-0.03516 -0.726562,-0.08203 -0.726562,-0.914063 v -4.605469 c 0,-0.65625 0.04687,-1.054687 0.04687,-1.054687 0,-0.07031 -0.04687,-0.09375 -0.128907,-0.09375 -0.257812,0.09375 -1.007812,0.234375 -1.40625,0.269531 -0.01172,0.07031 0,0.234375 0.05859,0.292969 0.585938,0.04687 0.644531,0.07031 0.644531,0.820312 z m 4.620118,-1.113281 v 1.324219 c 0,0.128906 -0.05859,0.199218 -0.140625,0.257812 -0.257813,0.210938 -0.597657,0.445313 -0.878907,0.445313 -0.503906,0 -0.714843,-0.410157 -0.714843,-0.714844 0,-0.445313 0.199218,-0.914063 0.949218,-1.101563 z m 0,1.851562 c 0.05859,0.304688 0.164062,0.585938 0.667968,0.585938 0.375,0 0.738282,-0.175781 0.949219,-0.375 -0.02344,-0.117188 -0.05859,-0.199219 -0.164062,-0.269531 -0.08203,0.07031 -0.257813,0.164062 -0.375,0.164062 -0.292969,0 -0.304688,-0.398437 -0.304688,-0.855469 v -1.464843 c 0,-1.417969 -0.773437,-1.6875 -1.5,-1.6875 -0.820312,0 -1.652344,0.539062 -1.652344,1.101562 0,0.246094 0.117188,0.363281 0.351563,0.363281 0.292969,0 0.46875,-0.210937 0.46875,-0.339843 0,-0.07031 -0.01172,-0.140625 -0.03516,-0.175782 -0.01172,-0.03516 -0.01172,-0.09375 -0.01172,-0.199218 0,-0.316407 0.410156,-0.421875 0.796875,-0.421875 0.339844,0 0.808594,0.164062 0.808594,1.300781 0,0.07031 -0.03516,0.105469 -0.05859,0.117187 l -0.867188,0.210938 c -0.949218,0.234375 -1.640625,0.761719 -1.640625,1.441406 0,0.820313 0.550782,1.089844 1.253907,1.089844 0.339843,0 0.65625,-0.08203 1.089843,-0.421875 l 0.199219,-0.164063 z m 2.074218,-3.808593 c -0.140625,0 -0.1875,0.117187 -0.1875,0.199218 v 0.128907 c 0,0.04687 0.01172,0.05859 0.05859,0.05859 h 0.585938 v 3.011719 c 0,0.714844 0.304687,0.996094 0.773437,0.996094 0.457031,0 0.949219,-0.222656 1.347656,-0.667969 -0.02344,-0.09375 -0.08203,-0.152344 -0.1875,-0.164062 -0.257812,0.199218 -0.550781,0.28125 -0.820312,0.28125 -0.269531,0 -0.328125,-0.304688 -0.328125,-0.925782 v -2.53125 h 1.042969 c 0.105468,0 0.234375,-0.03516 0.234375,-0.128906 v -0.199219 c 0,-0.03516 -0.02344,-0.05859 -0.07031,-0.05859 h -1.207031 v -0.386719 c 0,-0.65625 0.04687,-1.054688 0.04687,-1.054688 0,-0.05859 -0.03516,-0.08203 -0.08203,-0.08203 -0.04687,0 -0.128907,0.04687 -0.222657,0.09375 -0.117187,0.05859 -0.222656,0.105469 -0.339843,0.140625 -0.117188,0.03516 -0.222657,0.07031 -0.222657,0.128906 0,0.117188 0.03516,0.04687 0.03516,1.160157 z m 3.969727,1.464843 c 0.1875,-1.125 0.890625,-1.21875 1.125,-1.21875 0.386719,0 0.832031,0.210938 0.832031,1.054688 0,0.09375 -0.03516,0.140625 -0.152344,0.140625 z m 2.613281,1.898438 c -0.363281,0.375 -0.65625,0.539062 -1.242187,0.539062 -0.351563,0 -0.773438,-0.210937 -1.078125,-0.726562 -0.210938,-0.328125 -0.328125,-0.785156 -0.328125,-1.371094 l 2.660156,0.02344 c 0.117187,0 0.1875,-0.05859 0.1875,-0.164063 0,-0.84375 -0.292969,-1.746094 -1.6875,-1.746094 -0.867188,0 -1.992188,0.832032 -1.992188,2.355469 0,0.550781 0.140625,1.101563 0.46875,1.476563 0.339844,0.398437 0.808594,0.644531 1.523438,0.644531 0.761719,0 1.300781,-0.351563 1.699219,-0.878906 -0.02344,-0.09375 -0.09375,-0.140625 -0.210938,-0.152344 z M 2.4710644,-22.670962 H 1.5570019 v -1.792969 c 0,-0.445313 0.1171875,-0.644531 0.65625,-0.644531 h 0.75 c 0.75,0 0.9140625,0.398437 1.1367187,1.089843 0.1171875,0.02344 0.2226563,0 0.328125,-0.04687 -0.046875,-0.410156 -0.1992187,-1.371093 -0.2226562,-1.453125 0,-0.02344 -0.011719,-0.03516 -0.035156,-0.03516 -0.1757812,0.03516 -0.2578125,0.04687 -0.4921875,0.04687 H 1.1234081 c -0.30468748,0 -0.89062497,-0.01172 -1.28906247,-0.02344 -0.0585938,0.05859 -0.0585938,0.269531 0,0.328125 0.703125,0.03516 0.87890625,0.08203 0.87890625,0.914062 v 4.007813 c 0,0.832031 -0.17578125,0.878906 -0.87890625,0.914062 -0.0585938,0.05859 -0.0585938,0.269531 0,0.328125 0.375,-0.01172 0.97265624,-0.02344 1.30078127,-0.02344 h 2.15625 c 0.4804687,0 1.2773437,0.02344 1.2773437,0.02344 0.140625,-0.503906 0.2929688,-1.160156 0.3632813,-1.675781 -0.1054688,-0.04687 -0.2109375,-0.08203 -0.3398438,-0.04687 -0.2109375,0.714844 -0.5507812,1.3125 -1.3125,1.3125 H 2.1195019 c -0.421875,0 -0.5625,-0.164063 -0.5625,-0.632813 v -2.214843 h 0.9140625 c 0.84375,0 0.8789062,0.234375 0.9023437,0.679687 0.058594,0.07031 0.2695313,0.07031 0.328125,0 0,-0.257812 -0.011719,-0.527344 -0.011719,-0.878906 0,-0.269531 0.011719,-0.609375 0.011719,-0.855469 -0.058594,-0.05859 -0.2695312,-0.05859 -0.328125,0 -0.023437,0.550781 -0.058594,0.679688 -0.9023437,0.679688 z m 4.5732422,0.03516 c -0.2226563,-0.339844 -0.1523438,-0.351563 0.2929687,-0.398438 0.058594,-0.07031 0.058594,-0.28125 0,-0.339843 -0.2695312,0.01172 -0.7148437,0.02344 -1.0078125,0.02344 -0.3046875,0 -0.5976562,-0.01172 -0.8671875,-0.02344 -0.058594,0.05859 -0.058594,0.269531 0,0.339843 0.3398438,0.02344 0.6210938,0.199219 0.9023438,0.609375 l 0.8671875,1.265625 c 0.046875,0.08203 0.046875,0.105469 0.011719,0.152344 l -0.8320312,1.078125 c -0.3984375,0.503906 -0.6210938,0.539063 -0.9726563,0.5625 -0.058594,0.05859 -0.058594,0.269531 0,0.328125 0.1992188,-0.01172 0.421875,-0.02344 0.7148438,-0.02344 0.3046875,0 0.5859375,0.01172 0.84375,0.02344 0.058594,-0.05859 0.058594,-0.269531 0,-0.328125 -0.3632813,-0.03516 -0.4453125,-0.07031 -0.2226563,-0.410156 l 0.6328125,-0.902344 c 0.082031,-0.117187 0.1054688,-0.105469 0.1757813,-0.02344 l 0.5859375,0.796875 c 0.3398437,0.480468 0.1757812,0.503906 -0.1289063,0.539062 -0.058594,0.05859 -0.058594,0.269531 0,0.328125 0.2929688,-0.01172 0.6210938,-0.02344 0.984375,-0.02344 0.3867188,0 0.65625,0.01172 0.890625,0.02344 0.058594,-0.05859 0.058594,-0.269531 0,-0.328125 -0.4570312,-0.03516 -0.5976562,-0.07031 -0.9960937,-0.632812 L 8.0169631,-21.27643 c -0.046875,-0.04687 -0.046875,-0.08203 0,-0.140625 l 0.84375,-1.078125 c 0.3632813,-0.46875 0.5976563,-0.515625 0.9609375,-0.539063 0.058594,-0.07031 0.058594,-0.28125 0,-0.339843 -0.1992187,0.01172 -0.421875,0.02344 -0.7265625,0.02344 -0.2929687,0 -0.5742187,-0.01172 -0.84375,-0.02344 -0.058594,0.05859 -0.058594,0.269531 0,0.339843 0.3632813,0.03516 0.4804688,0.07031 0.2460938,0.398438 l -0.65625,0.914062 c -0.070312,0.105469 -0.1171875,0.105469 -0.1875,-0.02344 z m 3.5185544,-0.714844 c -0.140625,0 -0.1875,0.117188 -0.1875,0.199219 v 0.128906 c 0,0.04687 0.01172,0.05859 0.05859,0.05859 h 0.585937 v 3.011719 c 0,0.714843 0.304688,0.996093 0.773438,0.996093 0.457031,0 0.949219,-0.222656 1.347656,-0.667968 -0.02344,-0.09375 -0.08203,-0.152344 -0.1875,-0.164063 -0.257812,0.199219 -0.550781,0.28125 -0.820312,0.28125 -0.269532,0 -0.328125,-0.304687 -0.328125,-0.925781 v -2.53125 h 1.042968 c 0.105469,0 0.234375,-0.03516 0.234375,-0.128906 v -0.199219 c 0,-0.03516 -0.02344,-0.05859 -0.07031,-0.05859 h -1.207031 v -0.386719 c 0,-0.65625 0.04687,-1.054687 0.04687,-1.054687 0,-0.05859 -0.03516,-0.08203 -0.08203,-0.08203 -0.04687,0 -0.128906,0.04687 -0.222656,0.09375 -0.117187,0.05859 -0.222656,0.105468 -0.339844,0.140625 -0.117187,0.03516 -0.222656,0.07031 -0.222656,0.128906 0,0.117187 0.03516,0.04687 0.03516,1.160156 z m 4.482422,0.714844 c -0.02344,-0.398438 -0.03516,-0.65625 -0.08203,-0.761719 -0.02344,-0.04687 -0.03516,-0.08203 -0.117188,-0.08203 -0.28125,0.105469 -0.539062,0.199219 -1.230468,0.292969 -0.02344,0.05859 0,0.210937 0.02344,0.28125 0.539063,0.04687 0.644531,0.09375 0.644531,0.679687 v 1.945313 c 0,0.832031 -0.117187,0.867187 -0.738281,0.914062 -0.05859,0.05859 -0.05859,0.269531 0,0.328125 0.351563,-0.01172 0.738281,-0.02344 1.136719,-0.02344 0.410156,0 0.867187,0.01172 1.21875,0.02344 0.05859,-0.05859 0.05859,-0.269531 0,-0.328125 -0.703125,-0.05859 -0.820313,-0.08203 -0.820313,-0.914062 v -1.394532 c 0,-0.257812 0.117188,-0.480468 0.234375,-0.667968 0.117188,-0.152344 0.339844,-0.492188 0.457032,-0.492188 0.09375,0 0.1875,0.03516 0.257812,0.140625 0.08203,0.09375 0.1875,0.222656 0.363281,0.222656 0.246094,0 0.46875,-0.246093 0.46875,-0.503906 0,-0.1875 -0.175781,-0.46875 -0.597656,-0.46875 -0.46875,0 -0.878906,0.433594 -1.101562,0.820313 -0.07031,0.117187 -0.117188,0.03516 -0.117188,-0.01172 z m 4.892578,1.242187 v 1.324219 c 0,0.128906 -0.05859,0.199219 -0.140625,0.257813 -0.257812,0.210937 -0.597656,0.445312 -0.878906,0.445312 -0.503906,0 -0.714844,-0.410156 -0.714844,-0.714844 0,-0.445312 0.199219,-0.914062 0.949219,-1.101562 z m 0,1.851563 c 0.05859,0.304687 0.164063,0.585937 0.667969,0.585937 0.375,0 0.738281,-0.175781 0.949219,-0.375 -0.02344,-0.117187 -0.05859,-0.199218 -0.164063,-0.269531 -0.08203,0.07031 -0.257812,0.164063 -0.375,0.164063 -0.292969,0 -0.304687,-0.398438 -0.304687,-0.855469 V -21.7569 c 0,-1.417969 -0.773438,-1.6875 -1.5,-1.6875 -0.820313,0 -1.652344,0.539063 -1.652344,1.101563 0,0.246093 0.117187,0.363281 0.351562,0.363281 0.292969,0 0.46875,-0.210938 0.46875,-0.339844 0,-0.07031 -0.01172,-0.140625 -0.03516,-0.175781 -0.01172,-0.03516 -0.01172,-0.09375 -0.01172,-0.199219 0,-0.316406 0.410157,-0.421875 0.796875,-0.421875 0.339844,0 0.808594,0.164063 0.808594,1.300781 0,0.07031 -0.03516,0.105469 -0.05859,0.117188 l -0.867187,0.210937 c -0.949219,0.234375 -1.640625,0.761719 -1.640625,1.441407 0,0.820312 0.550781,1.089843 1.253906,1.089843 0.339844,0 0.65625,-0.08203 1.089844,-0.421875 l 0.199219,-0.164062 z m 5.613281,-0.433594 c -0.03516,-0.08203 -0.117187,-0.128906 -0.199218,-0.140625 -0.339844,0.445313 -0.773438,0.667969 -1.207032,0.667969 -0.726562,0 -1.335937,-0.738281 -1.335937,-1.910156 0,-1.101563 0.480469,-1.757813 1.136719,-1.757813 0.585937,0 0.667968,0.351563 0.714843,0.691406 0.02344,0.269532 0.164063,0.363282 0.375,0.363282 0.210938,0 0.492188,-0.128907 0.492188,-0.433594 0,-0.550781 -0.574219,-0.949219 -1.535156,-0.949219 -0.984375,0 -2.039063,0.878906 -2.039063,2.308594 0,1.289062 0.714844,2.179687 1.96875,2.179687 0.609375,0 1.136719,-0.199218 1.628906,-1.019531 z m 0.741211,-3.375 c -0.140625,0 -0.1875,0.117188 -0.1875,0.199219 v 0.128906 c 0,0.04687 0.01172,0.05859 0.05859,0.05859 h 0.585938 v 3.011719 c 0,0.714843 0.304687,0.996093 0.773437,0.996093 0.457031,0 0.949219,-0.222656 1.347656,-0.667968 -0.02344,-0.09375 -0.08203,-0.152344 -0.1875,-0.164063 -0.257812,0.199219 -0.550781,0.28125 -0.820312,0.28125 -0.269531,0 -0.328125,-0.304687 -0.328125,-0.925781 v -2.53125 h 1.042969 c 0.105468,0 0.234375,-0.03516 0.234375,-0.128906 v -0.199219 c 0,-0.03516 -0.02344,-0.05859 -0.07031,-0.05859 H 27.53454 v -0.386719 c 0,-0.65625 0.04687,-1.054687 0.04687,-1.054687 0,-0.05859 -0.03516,-0.08203 -0.08203,-0.08203 -0.04687,0 -0.128907,0.04687 -0.222657,0.09375 -0.117187,0.05859 -0.222656,0.105468 -0.339843,0.140625 -0.117188,0.03516 -0.222657,0.07031 -0.222657,0.128906 0,0.117187 0.03516,0.04687 0.03516,1.160156 z m 0,0"
       style="fill:#000000;fill-opacity:1;fill-rule:nonzero;stroke:none"
       aria-label="Detector on&#10;Accumulate&#10;Extract"
       transform="matrix(1.3333333,0,0,1.3333333,0.27556,77.520919)" />
    <path
       id="path23"
       d="m 2.8230389,-3.2357464 c 0.8554688,0 0.8789063,0.234375 0.9140625,0.6796875 0.058594,0.070312 0.2695313,0.070312 0.328125,0 -0.011719,-0.2460937 -0.023437,-0.5273437 -0.023437,-0.8789062 0,-0.328125 0.011719,-0.5976563 0.023437,-0.8554688 -0.058594,-0.058594 -0.2695312,-0.058594 -0.328125,0 -0.035156,0.5507813 -0.058594,0.6796875 -0.9140625,0.6796875 H 1.8972577 v -1.7929687 c 0,-0.5507813 0.1171875,-0.6445313 0.5625,-0.6445313 h 0.4453125 c 1.0664062,0 1.3125,0.3984375 1.5351562,1.0898438 0.1171875,0 0.2226563,-0.023437 0.3046875,-0.046875 -0.058594,-0.4101563 -0.2109375,-1.3710938 -0.2226562,-1.453125 0,-0.023437 -0.011719,-0.035156 -0.035156,-0.035156 -0.1757812,0.046875 -0.2226562,0.046875 -0.46875,0.046875 H 1.4636639 c -0.3164062,0 -0.89062496,-0.011719 -1.28906246,-0.023437 -0.0585938,0.058594 -0.0585938,0.2695313 0,0.328125 0.703125,0.035156 0.87890626,0.082031 0.87890626,0.9140625 v 4.0078125 c 0,0.83203128 -0.17578126,0.87890628 -0.87890626,0.91406253 -0.0585938,0.0585937 -0.0585938,0.26953125 0,0.328125 0.3515625,-0.01171875 0.85546876,-0.0234375 1.30078126,-0.0234375 0.4570312,0 0.9375,0.01171875 1.2890625,0.0234375 0.058594,-0.05859375 0.058594,-0.26953125 0,-0.328125 -0.6914063,-0.0351563 -0.8671875,-0.0820313 -0.8671875,-0.91406253 v -2.015625 z m 2.9296875,-2.7539062 c 0,0.2578125 0.234375,0.515625 0.4804688,0.515625 0.28125,0 0.515625,-0.2578125 0.515625,-0.4804688 0,-0.234375 -0.2109375,-0.515625 -0.4804688,-0.515625 -0.234375,0 -0.515625,0.2460938 -0.515625,0.4804688 z m 0.9023438,4.7695312 v -1.9921875 c 0,-0.4921875 0.046875,-1.1367187 0.046875,-1.1367187 0,-0.035156 -0.046875,-0.070312 -0.1289063,-0.070312 -0.2929687,0.1054687 -0.6796875,0.1992187 -1.3710937,0.2929687 -0.023437,0.058594 0,0.2109375 0.023437,0.28125 0.5390625,0.058594 0.6445312,0.1054688 0.6445312,0.6796875 v 1.9453125 c 0,0.83203128 -0.1054687,0.85546878 -0.7148437,0.91406253 -0.070312,0.0585937 -0.070312,0.26953125 0,0.328125 0.328125,-0.01171875 0.7148437,-0.0234375 1.1132812,-0.0234375 0.3984375,0 0.7851563,0.01171875 1.1132813,0.0234375 0.058594,-0.05859375 0.058594,-0.26953125 0,-0.328125 -0.609375,-0.046875 -0.7265625,-0.0820313 -0.726562,-0.91406303 z m 1.8544922,0 c 0,0.83203128 -0.1054688,0.87890628 -0.7148438,0.91406253 -0.058594,0.0585937 -0.058594,0.26953125 0,0.328125 0.3398438,-0.01171875 0.7148438,-0.0234375 1.1132813,-0.0234375 0.3984375,0 0.7851562,0.01171875 1.1132811,0.0234375 0.05859,-0.05859375 0.05859,-0.26953125 0,-0.328125 -0.6093749,-0.0351563 -0.7265624,-0.0820313 -0.7265624,-0.91406253 v -4.6054687 c 0,-0.65625 0.046875,-1.0546875 0.046875,-1.0546875 0,-0.070312 -0.046875,-0.09375 -0.1289062,-0.09375 -0.2578125,0.09375 -1.0078125,0.234375 -1.40625,0.2695312 -0.011719,0.070312 0,0.234375 0.058594,0.2929688 0.5859375,0.046875 0.6445313,0.070312 0.6445313,0.8203125 z m 2.6396486,0 c 0,0.83203128 -0.105469,0.87890628 -0.714844,0.91406253 -0.05859,0.0585937 -0.05859,0.26953125 0,0.328125 0.339844,-0.01171875 0.714844,-0.0234375 1.113281,-0.0234375 0.398438,0 0.785157,0.01171875 1.113282,0.0234375 0.05859,-0.05859375 0.05859,-0.26953125 0,-0.328125 -0.609375,-0.0351563 -0.726563,-0.0820313 -0.726563,-0.91406253 v -4.6054687 c 0,-0.65625 0.04687,-1.0546875 0.04687,-1.0546875 0,-0.070312 -0.04687,-0.09375 -0.128906,-0.09375 -0.257813,0.09375 -1.007813,0.234375 -1.40625,0.2695312 -0.01172,0.070312 0,0.234375 0.05859,0.2929688 0.585937,0.046875 0.644531,0.070312 0.644531,0.8203125 z m 7.693359,0 v -3.8203125 c 0,-0.6445312 0.09375,-1.0195312 0.457031,-1.0195312 h 0.222657 c 0.75,0 1.21875,0.2578125 1.382812,1.03125 0.117188,0 0.246094,-0.011719 0.339844,-0.046875 -0.07031,-0.46875 -0.117188,-0.9726563 -0.128906,-1.4179688 0,-0.011719 -0.02344,-0.035156 -0.03516,-0.035156 -0.339843,0.035156 -1.441406,0.082031 -2.238281,0.082031 h -0.855469 c -0.773437,0 -1.945312,-0.046875 -2.332031,-0.082031 -0.01172,0 -0.03516,0.023437 -0.03516,0.035156 -0.04687,0.4453125 -0.140625,0.9609375 -0.246094,1.4414063 0.09375,0.046875 0.210938,0.058594 0.339844,0.058594 0.199219,-0.8085937 0.65625,-1.0664062 1.3125,-1.0664062 h 0.492187 c 0.375,0 0.46875,0.375 0.46875,0.9960937 v 3.84375 c 0,0.83203128 -0.164062,0.87890628 -0.972656,0.91406253 -0.05859,0.0585937 -0.05859,0.26953125 0,0.328125 0.492188,-0.01171875 0.996094,-0.0234375 1.40625,-0.0234375 0.375,0 0.890625,0.01171875 1.382813,0.0234375 0.05859,-0.05859375 0.05859,-0.26953125 0,-0.328125 -0.796875,-0.0351563 -0.960938,-0.0820313 -0.960938,-0.91406253 z m 3.369141,-4.7695312 c 0,0.2578125 0.234375,0.515625 0.480469,0.515625 0.28125,0 0.515625,-0.2578125 0.515625,-0.4804688 0,-0.234375 -0.210938,-0.515625 -0.480469,-0.515625 -0.234375,0 -0.515625,0.2460938 -0.515625,0.4804688 z m 0.902344,4.7695312 v -1.9921875 c 0,-0.4921875 0.04687,-1.1367187 0.04687,-1.1367187 0,-0.035156 -0.04687,-0.070312 -0.128907,-0.070312 -0.292968,0.1054687 -0.679687,0.1992187 -1.371093,0.2929687 -0.02344,0.058594 0,0.2109375 0.02344,0.28125 0.539063,0.058594 0.644531,0.1054688 0.644531,0.6796875 v 1.9453125 c 0,0.83203128 -0.105468,0.85546878 -0.714843,0.91406253 -0.07031,0.0585937 -0.07031,0.26953125 0,0.328125 0.328125,-0.01171875 0.714843,-0.0234375 1.113281,-0.0234375 0.398437,0 0.785156,0.01171875 1.113281,0.0234375 0.05859,-0.05859375 0.05859,-0.26953125 0,-0.328125 -0.609375,-0.046875 -0.726562,-0.0820313 -0.726562,-0.91406253 z m 2.604492,-2.3554687 c -0.02344,-0.2929688 -0.03516,-0.65625 -0.08203,-0.7617188 -0.02344,-0.046875 -0.03516,-0.082031 -0.117187,-0.082031 -0.28125,0.1054687 -0.539063,0.1992187 -1.230469,0.2929687 -0.02344,0.058594 0,0.2109375 0.02344,0.28125 0.539062,0.046875 0.644531,0.09375 0.644531,0.6796875 v 1.9453125 c 0,0.82031253 -0.128906,0.86718753 -0.679688,0.91406253 -0.05859,0.0585937 -0.05859,0.26953125 0,0.328125 0.304688,-0.01171875 0.679688,-0.0234375 1.078125,-0.0234375 0.398438,0 0.703125,0.01171875 1.007813,0.0234375 0.05859,-0.05859375 0.05859,-0.26953125 0,-0.328125 -0.503906,-0.0585938 -0.609375,-0.09375 -0.609375,-0.91406253 v -1.640625 c 0,-0.2109375 0.08203,-0.328125 0.164062,-0.421875 0.386719,-0.375 0.773438,-0.5859375 1.078125,-0.5859375 0.386719,0 0.65625,0.234375 0.65625,0.9140625 v 1.734375 c 0,0.82031253 -0.07031,0.86718753 -0.609375,0.91406253 -0.05859,0.0585937 -0.05859,0.26953125 0,0.328125 0.246094,-0.01171875 0.609375,-0.0234375 1.019532,-0.0234375 0.398437,0 0.726562,0.01171875 0.972656,0.0234375 0.04687,-0.05859375 0.04687,-0.26953125 0,-0.328125 -0.492188,-0.046875 -0.585938,-0.09375 -0.585938,-0.91406253 v -1.59375 c 0,-0.140625 0,-0.28125 -0.01172,-0.3984375 0.480468,-0.5273437 0.925781,-0.65625 1.324218,-0.65625 0.375,0 0.597657,0.2226563 0.597657,0.890625 v 1.7578125 c 0,0.82031253 -0.105469,0.86718753 -0.621094,0.91406253 -0.04687,0.0585937 -0.04687,0.26953125 0,0.328125 0.246094,-0.01171875 0.621094,-0.0234375 1.019531,-0.0234375 0.398438,0 0.75,0.01171875 1.03125,0.0234375 0.04687,-0.05859375 0.04687,-0.26953125 0,-0.328125 -0.550781,-0.046875 -0.644531,-0.09375 -0.644531,-0.91406253 v -1.5820312 c 0,-0.890625 -0.152344,-1.5820313 -1.03125,-1.5820313 -0.515625,0 -1.125,0.1875 -1.640625,0.7382813 -0.03516,0.023437 -0.09375,0.070312 -0.117188,0 -0.09375,-0.4101563 -0.480468,-0.7382813 -0.996093,-0.7382813 -0.585938,0 -1.113282,0.3398438 -1.523438,0.8085938 -0.04687,0.058594 -0.117187,0.1171875 -0.117187,0 z m 7.444336,0.75 c 0.1875,-1.125 0.890625,-1.21875 1.125,-1.21875 0.386718,0 0.832031,0.2109375 0.832031,1.0546875 0,0.09375 -0.03516,0.140625 -0.152344,0.140625 z m 2.613281,1.89843748 c -0.363281,0.375 -0.65625,0.5390625 -1.242188,0.5390625 -0.351562,0 -0.773437,-0.2109375 -1.078125,-0.72656248 -0.210937,-0.328125 -0.328125,-0.7851563 -0.328125,-1.3710938 l 2.660157,0.023437 c 0.117187,0 0.1875,-0.058594 0.1875,-0.1640625 0,-0.84375 -0.292969,-1.7460937 -1.6875,-1.7460937 -0.867188,0 -1.992188,0.8320312 -1.992188,2.3554687 0,0.5507813 0.140625,1.10156253 0.46875,1.47656253 0.339844,0.3984375 0.808594,0.64453125 1.523438,0.64453125 0.761718,0 1.300781,-0.3515625 1.699218,-0.87890625 -0.02344,-0.09375 -0.09375,-0.140625 -0.210937,-0.15234325 z m 0,0"
       style="fill:#000000;fill-opacity:1;fill-rule:nonzero;stroke:none"
       aria-label="Fill Time"
       transform="matrix(1.3333333,0,0,1.3333333,69.599229,13.619016)" />
    <text
       xml:space="preserve"
       style="fill:#000000;stroke-width:2.36;stroke-dasharray:none"
       x="130"
       y="66"
       id="text26"><tspan
         sodipodi:role="line"
         id="tspan26"
         x="130"
         y="66" /></text>
    <text
       xml:space="preserve"
       style="fill:#000000;stroke-width:2.36;stroke-dasharray:none"
       x="129"
       y="59.5"
       id="text27"><tspan
         sodipodi:role="line"
         id="tspan27"
         x="129"
         y="59.5">asdf</tspan></text>
  </g>
</svg>
